<!DOCTYPE svg PUBLIC "-//W3C//DTD SVG 1.1//EN" "http://www.w3.org/Graphics/SVG/1.1/DTD/svg11.dtd">
<!-- Uploaded to: SVG Repo, www.svgrepo.com, Transformed by: SVG Repo Mixer Tools -->
<svg fill="#ffffff" version="1.1" id="Layer_1" xmlns="http://www.w3.org/2000/svg" xmlns:xlink="http://www.w3.org/1999/xlink" width="64px" height="64px" viewBox="0 0 100 100" enable-background="new 0 0 100 100" xml:space="preserve" stroke="#ffffff">
<g id="SVGRepo_bgCarrier" stroke-width="0"/>
<g id="SVGRepo_tracerCarrier" stroke-linecap="round" stroke-linejoin="round"/>
<g id="SVGRepo_iconCarrier"> <g> <path d="M33.573,58.572c0.645,1.078,1.282,2.127,1.882,3.18c2.095,3.673,4.167,7.329,6.238,11.017l0.255,0.394 c0.353,0.627,1.015,0.704,1.734,0.708L56.56,73.5c0.003,0,0.007,0,0.01,0c0.724,0,1.39,0.042,1.744-0.589l7.996-13.917 c0.384-0.684,0.774-1.316,1.165-1.998c2.969-5.173,6.037-10.5,6.037-17.048c0-12.944-10.531-23.465-23.476-23.465 S26.561,27.016,26.561,39.96C26.561,46.861,30.286,53.082,33.573,58.572z M50.036,20.498c10.739,0,19.476,8.736,19.476,19.476 c0,5.483-2.675,10.146-5.507,15.081c-0.396,0.692-0.794,1.384-1.185,2.079L55.401,70.36L44.866,70.31 c-1.971-3.508-3.942-7.015-5.936-10.509c-0.614-1.077-1.265-2.165-1.925-3.268c-3.168-5.292-6.444-10.764-6.444-16.56 C30.561,29.234,39.297,20.498,50.036,20.498z"/> <path d="M58.5,78c0-0.828-0.672-1.5-1.5-1.5H45c-0.829,0-1.5,0.672-1.5,1.5s0.671,1.5,1.5,1.5h12C57.828,79.5,58.5,78.828,58.5,78z "/> <path d="M46,81.5c-0.829,0-1.5,0.672-1.5,1.5s0.671,1.5,1.5,1.5h10c0.828,0,1.5-0.672,1.5-1.5s-0.672-1.5-1.5-1.5H46z"/> </g> </g>
</svg>