<svg width="473" height="545" viewBox="0 0 473 545" fill="none" xmlns="http://www.w3.org/2000/svg">
<path d="M18.9778 135.222L232.697 11.466C239.046 7.78971 246.898 7.88443 253.156 11.7128L454.937 135.15C460.877 138.784 464.5 145.247 464.5 152.211V392.289C464.5 399.253 460.877 405.716 454.937 409.35L253.156 532.787C246.898 536.616 239.046 536.71 232.697 533.034L18.9778 409.278C12.8023 405.702 9 399.106 9 391.97V152.53C9 145.394 12.8023 138.798 18.9778 135.222Z" fill="#00BCD4" stroke="white" stroke-width="17"/>
<path d="M187.759 275.335C189.669 278.314 191.555 281.214 193.331 284.124C199.533 294.276 205.668 304.382 211.799 314.575L212.554 315.664C213.599 317.397 215.559 317.61 217.687 317.621L255.813 316.596C255.822 316.596 255.834 316.596 255.843 316.596C257.986 316.596 259.958 316.712 261.006 314.968L284.678 276.501C285.815 274.61 286.97 272.864 288.127 270.979C296.917 256.68 306 241.956 306 223.858C306 188.08 274.823 159 236.499 159C198.174 159 167 188.113 167 223.891C167 242.965 178.028 260.16 187.759 275.335ZM236.499 170.098C268.292 170.098 294.158 194.244 294.158 223.929C294.158 239.085 286.238 251.973 277.854 265.614C276.682 267.526 275.504 269.439 274.346 271.36L252.382 307.917L221.193 307.779C215.357 298.082 209.522 288.389 203.619 278.732C201.801 275.755 199.874 272.748 197.92 269.699C188.541 255.072 178.842 239.947 178.842 223.927C178.842 194.244 204.705 170.098 236.499 170.098Z" fill="white" stroke="white" stroke-width="0.64"/>
<path d="M261.556 329.034C261.556 326.745 259.567 324.888 257.116 324.888H221.589C219.135 324.888 217.148 326.745 217.148 329.034C217.148 331.323 219.135 333.18 221.589 333.18H257.116C259.567 333.18 261.556 331.323 261.556 329.034Z" fill="white" stroke="white" stroke-width="0.64"/>
<path d="M224.55 338.708C222.096 338.708 220.109 340.565 220.109 342.854C220.109 345.142 222.096 347 224.55 347H254.155C256.607 347 258.596 345.142 258.596 342.854C258.596 340.565 256.607 338.708 254.155 338.708H224.55Z" fill="white" stroke="white" stroke-width="0.64"/>
</svg>
