<svg width="637" height="637" viewBox="0 0 637 637" fill="none" xmlns="http://www.w3.org/2000/svg">
<circle cx="318.5" cy="318.5" r="318" fill="#394050" stroke="#394050"/>
<path d="M509 415.969C509 372.292 478.564 335.747 437.75 326.322C431.067 324.78 424.12 323.937 416.969 323.937C414.971 323.937 412.997 324.024 411.032 324.148C366.432 326.992 330.483 361.584 325.538 405.578C325.155 408.99 324.938 412.454 324.938 415.969C324.938 422.589 325.653 429.04 326.98 435.265C335.851 476.825 372.761 508 416.969 508C467.797 508 509 466.797 509 415.969ZM416.969 476.828C383.357 476.828 356.109 449.581 356.109 415.969C356.109 382.357 383.357 355.109 416.969 355.109C450.581 355.109 477.828 382.357 477.828 415.969C477.828 449.581 450.581 476.828 416.969 476.828Z" fill="#212331"/>
<path d="M428.843 374.406H408.063V407.063H375.406V427.844H428.843V407.063V374.406Z" fill="#212331"/>
<path d="M197.282 128C191.552 128 186.891 132.661 186.891 138.39V162.14V187.375C186.891 193.105 191.552 197.765 197.282 197.765H206.188C211.918 197.765 216.578 193.104 216.578 187.375V162.14V138.39C216.578 132.661 211.918 128 206.187 128H197.282Z" fill="#212331"/>
<path d="M360.563 128C354.833 128 350.172 132.661 350.172 138.39V162.14V187.375C350.172 193.105 354.834 197.765 360.563 197.765H369.469C375.199 197.765 379.86 193.104 379.86 187.375V162.14V138.39C379.86 132.661 375.198 128 369.469 128H360.563Z" fill="#212331"/>
<path d="M152.75 435.266H299.703C298.255 428.063 297.485 420.621 297.485 413C297.485 410.504 297.595 408.034 297.755 405.578H173.531C163.693 405.578 155.719 397.604 155.719 387.766V245.266H411.031V300.345C412.997 300.244 414.977 300.188 416.969 300.188C424.07 300.188 431.007 300.877 437.75 302.138V185.891C437.75 172.774 427.116 162.141 414 162.141H394.703V187.375C394.703 201.29 383.384 212.61 369.469 212.61H360.562C346.647 212.61 335.328 201.29 335.328 187.375V162.141H231.422V187.375C231.422 201.29 220.102 212.61 206.187 212.61H197.281C183.366 212.61 172.046 201.29 172.046 187.375V162.141H152.75C139.634 162.141 129 172.775 129 185.891V411.516C129 424.632 139.634 435.266 152.75 435.266Z" fill="#212331"/>
<path d="M212.683 313.363C225.699 313.363 236.25 302.812 236.25 289.797C236.25 276.781 225.699 266.23 212.683 266.23C199.668 266.23 189.117 276.781 189.117 289.797C189.117 302.812 199.668 313.363 212.683 313.363Z" fill="#212331"/>
<path d="M283.375 313.363C296.39 313.363 306.941 302.812 306.941 289.797C306.941 276.781 296.39 266.23 283.375 266.23C270.36 266.23 259.809 276.781 259.809 289.797C259.809 302.812 270.36 313.363 283.375 313.363Z" fill="#212331"/>
<path d="M354.067 313.363C367.082 313.363 377.633 302.812 377.633 289.797C377.633 276.781 367.082 266.23 354.067 266.23C341.052 266.23 330.501 276.781 330.501 289.797C330.501 302.812 341.052 313.363 354.067 313.363Z" fill="#212331"/>
<path d="M283.375 384.612C296.39 384.612 306.941 374.062 306.941 361.047C306.941 348.032 296.39 337.481 283.375 337.481C270.36 337.481 259.81 348.032 259.81 361.047C259.81 374.062 270.36 384.612 283.375 384.612Z" fill="#212331"/>
<path d="M212.683 384.612C225.698 384.612 236.249 374.062 236.249 361.047C236.249 348.032 225.698 337.481 212.683 337.481C199.668 337.481 189.118 348.032 189.118 361.047C189.118 374.062 199.668 384.612 212.683 384.612Z" fill="#212331"/>
</svg>
