<svg width="473" height="545" viewBox="0 0 473 545" fill="none" xmlns="http://www.w3.org/2000/svg">
<path d="M187.759 275.835C189.669 278.814 191.555 281.714 193.331 284.624C199.533 294.776 205.668 304.882 211.799 315.075L212.554 316.164C213.599 317.897 215.559 318.11 217.687 318.121L255.813 317.096C255.822 317.096 255.834 317.096 255.843 317.096C257.986 317.096 259.958 317.212 261.006 315.468L284.678 277.001C285.815 275.11 286.97 273.364 288.127 271.479C296.917 257.18 306 242.456 306 224.358C306 188.58 274.823 159.5 236.499 159.5C198.174 159.5 167 188.613 167 224.391C167 243.465 178.028 260.66 187.759 275.835ZM236.499 170.598C268.292 170.598 294.158 194.744 294.158 224.429C294.158 239.585 286.238 252.473 277.854 266.114C276.682 268.026 275.504 269.939 274.346 271.86L252.382 308.417L221.193 308.279C215.357 298.582 209.522 288.889 203.619 279.232C201.801 276.255 199.874 273.248 197.92 270.199C188.541 255.572 178.842 240.447 178.842 224.427C178.842 194.744 204.705 170.598 236.499 170.598Z" fill="white" stroke="white" stroke-width="0.64"/>
<path d="M261.556 329.534C261.556 327.245 259.567 325.388 257.116 325.388H221.589C219.135 325.388 217.148 327.245 217.148 329.534C217.148 331.823 219.135 333.68 221.589 333.68H257.116C259.567 333.68 261.556 331.823 261.556 329.534Z" fill="white" stroke="white" stroke-width="0.64"/>
<path d="M224.55 339.208C222.096 339.208 220.109 341.065 220.109 343.354C220.109 345.642 222.096 347.5 224.55 347.5H254.155C256.607 347.5 258.596 345.642 258.596 343.354C258.596 341.065 256.607 339.208 254.155 339.208H224.55Z" fill="white" stroke="white" stroke-width="0.64"/>
<path d="M18.9778 135.722L232.697 11.966C239.046 8.28971 246.898 8.38443 253.156 12.2128L454.937 135.65C460.877 139.284 464.5 145.747 464.5 152.711V392.789C464.5 399.753 460.877 406.216 454.937 409.85L253.156 533.287C246.898 537.116 239.046 537.21 232.697 533.534L18.9778 409.778C12.8023 406.202 9 399.606 9 392.47V153.03C9 145.894 12.8023 139.298 18.9778 135.722Z" fill="#917BEA" stroke="white" stroke-width="17"/>
<path d="M365.247 159H108.753C101.157 159 95 164.635 95 171.587V318.851C95 325.803 101.157 331.438 108.753 331.438H204.68V359.959H167.352C160.338 359.959 154.631 365.182 154.631 371.602C154.631 378.022 160.338 383.244 167.352 383.244H306.648C313.663 383.244 319.37 378.022 319.37 371.602C319.37 365.182 313.663 359.959 306.648 359.959H269.32V331.438H365.247C372.843 331.438 379 325.803 379 318.851V171.587C379 164.635 372.843 159 365.247 159ZM358.37 312.558H115.63V177.88H358.37V312.558Z" fill="white" stroke="white" stroke-width="0.129136"/>
<path d="M138.322 233.222H335.679C337.578 233.222 339.117 231.813 339.117 230.076V195.458C339.117 193.72 337.578 192.311 335.679 192.311H138.322C136.422 192.311 134.883 193.72 134.883 195.458V230.076C134.883 231.814 136.422 233.222 138.322 233.222Z" fill="white" stroke="white" stroke-width="0.129136"/>
<path d="M335.679 245.109H291.175C289.669 245.109 288.447 246.227 288.447 247.605V295.644C288.447 297.023 289.666 298.14 291.175 298.14H335.679C337.185 298.14 338.406 297.024 338.406 295.644V247.605C338.406 246.226 337.185 245.109 335.679 245.109Z" fill="white" stroke="white" stroke-width="0.129136"/>
<path d="M268.138 245.109H138.322C136.816 245.109 135.594 246.227 135.594 247.605V295.644C135.594 297.023 136.815 298.14 138.322 298.14H268.138C269.643 298.14 270.865 297.024 270.865 295.644V247.605C270.865 246.226 269.645 245.109 268.138 245.109ZM261.682 291.856H144.78V251.393H261.682V291.856Z" fill="white" stroke="white" stroke-width="0.129136"/>
</svg>
