<!DOCTYPE svg PUBLIC "-//W3C//DTD SVG 1.1//EN" "http://www.w3.org/Graphics/SVG/1.1/DTD/svg11.dtd">
<!-- Uploaded to: SVG Repo, www.svgrepo.com, Transformed by: SVG Repo Mixer Tools -->
<svg fill="#ffffff" version="1.1" id="Capa_1" xmlns="http://www.w3.org/2000/svg" xmlns:xlink="http://www.w3.org/1999/xlink" width="64px" height="64px" viewBox="-41.3 -41.3 495.60 495.60" xml:space="preserve" stroke="#ffffff" transform="rotate(0)">
<g id="SVGRepo_bgCarrier" stroke-width="0"/>
<g id="SVGRepo_tracerCarrier" stroke-linecap="round" stroke-linejoin="round"/>
<g id="SVGRepo_iconCarrier"> <g> <g> <g> <path d="M392.997,28.338H20c-11.046,0-20,8.954-20,20v234c0,11.046,8.954,20,20,20h139.499v45.32h-54.283 c-10.201,0-18.5,8.299-18.5,18.5s8.299,18.5,18.5,18.5h202.566c10.201,0,18.5-8.299,18.5-18.5s-8.299-18.5-18.5-18.5h-54.283 v-45.32h139.498c11.047,0,20-8.954,20-20v-234C412.997,37.292,404.044,28.338,392.997,28.338z M382.997,272.338H30v-214h352.997 V272.338L382.997,272.338z"/> <path d="M62.999,146.276h287c2.762,0,5-2.239,5-5V86.269c0-2.761-2.238-5-5-5h-287c-2.762,0-5,2.239-5,5v55.008 C57.999,144.038,60.237,146.276,62.999,146.276z"/> <path d="M349.999,165.164H285.28c-2.19,0-3.966,1.776-3.966,3.966v76.333c0,2.19,1.773,3.966,3.966,3.966h64.719 c2.19,0,3.966-1.774,3.966-3.966v-76.333C353.965,166.938,352.189,165.164,349.999,165.164z"/> <path d="M251.78,165.164H62.999c-2.19,0-3.967,1.776-3.967,3.966v76.333c0,2.19,1.776,3.966,3.967,3.966H251.78 c2.189,0,3.965-1.774,3.965-3.966v-76.333C255.745,166.938,253.971,165.164,251.78,165.164z M242.391,239.444h-170v-64.296h170 V239.444z"/> </g> </g> </g> </g>
</svg>